<svg width="2450" height="614" viewBox="0 0 2450 614" fill="none" xmlns="http://www.w3.org/2000/svg">
<path d="M844.667 44.5333C815.333 49.3333 791.333 62 770.533 83.4667C742 113.2 728 149.733 728 195.067C728 229.733 737.467 255.067 757.867 275.333C777.867 295.067 801.467 304 833.733 304C842.133 304 854.133 303.067 860.4 302C917.333 292.133 960.8 243.867 971.467 178.933C974.4 160.933 973.333 130 969.333 116C959.2 80.2667 934.267 55.6 899.333 46.5333C885.733 43.0667 859.6 42 844.667 44.5333ZM882 83.3333C903.467 88.9333 919.2 106.133 924.8 130.267C926.4 137.2 926.8 143.733 926.267 158C925.467 180.933 921.733 195.6 911.733 216C905.867 227.867 903.067 231.733 893.333 241.6C884.267 250.8 879.733 254.133 871.867 258C835.333 275.333 797.067 265.067 782 234C776.533 222.933 774.267 211.333 774.267 195.333C774.4 140.267 803.333 94.8 845.467 83.4667C855.067 80.9333 872.267 80.8 882 83.3333Z" fill="#99000F"/>
<path d="M77.3333 171.467C36.6667 240 3.20001 296.667 2.93335 297.333C2.66668 298.133 12.1333 298.667 27.6 298.667H52.6667L70 267.333L87.3333 236.133L137.6 236H187.733L188.533 239.6C189.2 243.467 197.333 296.8 197.333 298C197.333 298.4 207.6 298.667 220 298.667C232.533 298.667 242.667 298.4 242.667 298.133C242.667 297.867 233.733 241.6 222.667 173.067C211.733 104.667 202.667 48.2667 202.667 47.7334C202.667 47.0667 191.067 46.6667 177.067 46.6667L151.333 46.8001L77.3333 171.467ZM176.933 150.267C180.4 176.933 182.8 198.933 182.4 199.333C182 199.733 164.933 199.867 144.267 199.733L106.933 199.333L135.867 148.4C151.867 120.267 166.133 94.5334 167.467 91.0667L170 84.6667L170.267 93.3334C170.533 98.1334 173.467 123.733 176.933 150.267Z" fill="#99000F"/>
<path d="M319.467 48.9333C315.867 60.9333 287.867 194.667 286.667 205.333C281.2 254.667 303.067 289.467 346.667 300.933C358.8 304.133 390 304.133 405.333 300.8C444.667 292.533 468.4 268.667 482.533 223.333C484.933 216 494.667 173.333 504.4 128.667L522.133 47.3333L500.267 46.9333C488.133 46.8 478.133 46.8 477.867 47.0666C477.6 47.3333 469.867 82 460.667 124.133C441.2 213.467 440.133 217.2 433.333 231.333C421.6 255.733 403.2 266.4 375.2 265.067C350.4 263.867 334.533 250.133 330.667 226.4C328.4 212 329.067 208.133 350.533 110.267C358 76.6666 364 48.6666 364 48C364 47.2 355.067 46.6666 342.133 46.6666C322.4 46.6666 320.133 46.9333 319.467 48.9333Z" fill="#99000F"/>
<path d="M555.333 49.6001C554.933 51.3334 553.467 58.0001 552 64.6667C550.533 71.2001 549.067 78.0001 548.667 79.6001L548 82.6667H584.667C611.867 82.6667 621.333 83.0667 621.333 84.2667C621.333 85.0667 611.2 133.333 598.667 191.6C586.267 249.733 576 297.6 576 298C576 298.4 585.867 298.667 598 298.667H619.867L621.2 293.6C621.867 290.933 632.133 243.333 644 188C655.867 132.667 665.733 86.2667 666.133 84.9334C666.8 82.8001 669.733 82.6667 703.2 82.6667H739.467L742.667 67.6001C744.267 59.4667 746 51.3334 746.4 49.6001L746.933 46.6667H651.467H556L555.333 49.6001Z" fill="#99000F"/>
<path d="M1112.67 135.867C1105.87 137.6 1092.13 145.467 1086.67 150.8C1071.33 165.6 1069.47 187.867 1081.33 212.533C1086.67 223.733 1092.93 232.8 1109.33 253.467C1132.27 282.4 1137.6 290.667 1133.07 290.667C1132.27 290.667 1124.53 283.6 1116 274.933C1104 262.8 1098.8 256.4 1092.8 246.267C1088.53 239.067 1082.67 230.667 1079.73 227.733C1069.6 217.6 1053.6 212.533 1035.07 213.733C1015.87 214.933 1001.73 223.6 994.8 238.667C991.867 245.067 991.467 247.867 991.333 260C991.333 273.6 991.467 274.267 996.4 284C999.6 290.667 1001.33 295.867 1001.33 299.467C1001.33 307.733 997.733 317.867 992.4 324.933C989.733 328.4 986.4 334.133 985.067 337.733C981.867 346.267 981.867 361.467 985.2 368.933C990 379.333 1011.73 393.067 1028.27 396.133L1036.93 397.733L1026.8 406.667C1012.4 419.333 994.4 438.667 986.4 449.733C980.133 458.667 972 474.133 972 477.333C972 478 974 478.667 976.4 478.667C980.4 478.667 981.6 477.467 990.667 464.933C1005.33 444.8 1034.67 416 1052 404.667C1070.13 392.8 1094 369.2 1103.33 354C1111.07 341.2 1116.27 335.333 1122.93 331.867C1128.4 329.067 1133.33 328.533 1133.33 330.8C1133.33 331.6 1127.73 338.267 1120.8 345.733C1090.4 378.8 1085.87 383.867 1079.6 392.667C1076 397.733 1070.53 407.067 1067.6 413.067C1063.07 422.4 1062.13 426 1061.6 434.533C1061.07 443.333 1061.47 445.733 1064 450.8C1069.07 460.667 1074.4 466.4 1082.4 470.267C1089.33 473.6 1091.2 474 1104.67 473.867C1115.47 473.733 1120.8 473.2 1124.67 471.467C1133.73 467.467 1140.53 466.933 1152.93 468.8C1159.47 469.733 1167.73 471.467 1171.33 472.667C1175.07 473.733 1183.07 475.067 1189.33 475.467C1199.33 476.267 1201.6 476 1207.33 473.467C1215.33 470 1219.2 466.533 1223.6 459.067C1230.53 447.067 1232.67 427.067 1228.67 411.467C1223.73 392.4 1216.4 383.067 1188 359.867C1172.27 347.067 1169.33 343.2 1171.73 338C1173.6 334 1177.6 333.6 1181.07 337.067C1184.4 340.667 1199.33 358.8 1210.13 372.533C1222.53 388.533 1234 398.933 1245.07 404.267C1253.47 408.4 1254.8 408.667 1268.67 408.667C1282 408.667 1284 408.4 1290.93 404.933C1305.87 397.6 1311.33 386.533 1310.4 365.467C1309.87 351.867 1309.2 349.733 1299.47 333.067C1293.07 322.133 1294.93 311.6 1305.33 298C1313.47 287.6 1316 280.8 1316 269.733C1316 255.6 1312.27 246.667 1302 236.4C1295.6 230 1292.27 227.733 1286.67 226.133C1273.2 222.133 1255.47 224.133 1244 231.067C1236 235.867 1231.2 240.267 1222.4 251.333C1212.13 264 1200.93 274.533 1190.27 281.467C1178.67 288.933 1168.67 291.733 1173.33 286C1174.27 284.933 1179.87 280.533 1185.87 276.4C1198 268 1216.8 249.867 1224.93 238.667C1239.6 218.667 1245.47 195.867 1241.2 175.733C1237.87 160.133 1229.87 147.733 1219.47 142.267C1210.8 137.733 1196.67 138.267 1184.67 143.6C1179.6 145.867 1173.2 148 1170.67 148.533C1163.87 149.733 1151.87 146.133 1143.2 140.4C1136.4 135.867 1134.67 135.333 1126.13 135.067C1120.93 134.933 1114.8 135.333 1112.67 135.867Z" fill="#20724D"/>
<path d="M1360 271.733C1360 276.133 1394.53 520.133 1395.33 521.467C1395.87 522.133 1406 522.667 1418.53 522.667C1438.27 522.667 1441.2 522.4 1442.93 520.267C1444 519.067 1476.53 464 1515.33 398C1554 332 1586.8 276 1588.27 273.6L1590.93 269.333H1565.73L1540.67 269.467L1487.2 367.733C1457.73 421.733 1432.53 468.8 1431.33 472.267C1430 475.867 1428.93 478.667 1428.8 478.667C1428.67 478.667 1428.4 473.733 1428.4 467.6C1428.27 461.6 1423.07 415.2 1416.8 364.4C1410.53 313.733 1405.33 271.6 1405.33 270.8C1405.33 269.733 1398.13 269.333 1382.67 269.333C1361.6 269.333 1360 269.467 1360 271.733Z" fill="white"/>
<path d="M1626 270.933C1625.73 271.867 1613.73 327.6 1599.33 394.667C1584.93 461.733 1572.8 518 1572.4 519.6L1571.73 522.667H1644.53H1717.33L1718 519.6C1718.4 518 1719.87 510.933 1721.33 504C1722.8 497.067 1724.27 490 1724.67 488.267L1725.33 485.333H1675.33C1644.93 485.333 1625.33 484.8 1625.33 484.133C1625.33 483.333 1628.67 467.733 1632.67 449.333C1636.67 430.933 1640 415.6 1640 415.2C1640 414.933 1659.87 414.667 1684 414.667C1708.27 414.667 1728 414.267 1728 413.867C1728 413.333 1733.33 389.067 1735.33 380.4L1736 377.333L1692.27 377.067L1648.53 376.667L1655.87 341.733L1663.33 306.667L1710.67 306.4L1758 306L1760.93 292.667C1762.53 285.333 1764.27 277.067 1764.67 274.267L1765.6 269.333H1696.13C1641.6 269.333 1626.4 269.733 1626 270.933Z" fill="white"/>
<path d="M1814 270.933C1813.73 271.867 1801.73 327.6 1787.33 394.667C1772.93 461.733 1760.8 518 1760.4 519.6L1759.73 522.667H1781.87C1803.6 522.667 1804.13 522.667 1805.2 519.6C1805.87 518 1811.07 494.8 1816.8 468.133L1827.33 419.733L1840.67 420.267C1859.33 421.067 1866.53 425.067 1873.2 438.4C1876.13 444.133 1878.4 452.667 1889.33 498.933L1894.93 522.667H1917.87C1930.53 522.667 1941.2 522.267 1941.6 521.867C1942.8 520.8 1921.47 438.8 1918 431.2C1914.67 423.6 1906.8 414.133 1900.8 410.533C1898.13 408.933 1897.47 408 1898.8 407.6C1899.87 407.333 1904.93 406.133 1910 404.8C1925.2 401.333 1940.4 393.067 1950.67 382.8C1964.4 369.067 1970.67 353.333 1970.67 332.667C1970.67 300.8 1954 280.133 1921.87 272C1912.53 269.6 1907.07 269.333 1863.07 269.333C1825.47 269.333 1814.4 269.733 1814 270.933ZM1905.6 308.267C1918.8 314.4 1924.93 326.267 1923.6 342.933C1922 362.4 1909.07 376.267 1887.07 382C1881.73 383.333 1872.67 384 1856.93 384C1836.13 384 1834.53 383.867 1835.2 381.6C1835.6 380.4 1839.2 363.733 1843.33 344.667C1847.47 325.6 1851.2 308.533 1851.6 306.933L1852.4 303.733L1875.2 304.267C1896.53 304.667 1898.53 304.933 1905.6 308.267Z" fill="white"/>
<path d="M2039.47 271.6C2039.07 272.933 2027.07 328.533 2012.67 395.333C1998.27 462 1986.13 518 1985.73 519.6L1985.07 522.667H2035.07C2090.27 522.667 2105.87 521.6 2126.67 516.533C2170.53 505.733 2200.93 481.333 2219.47 442.133C2233.87 411.733 2238.4 370.667 2230.8 340.933C2226.53 324.533 2219.73 313.067 2206.67 299.867C2197.2 290.267 2193.2 287.333 2182.67 282.133C2158.93 270.533 2156.4 270.133 2094.4 269.6C2043.07 269.2 2040.13 269.333 2039.47 271.6ZM2144.27 310.4C2176.53 321.067 2191.33 348.4 2186.8 388.533C2183.47 417.867 2174.93 437.067 2157.33 454.667C2144.4 467.6 2135.33 473.333 2119.73 478.8C2104.67 483.867 2092.13 485.333 2063.07 485.333H2038.4L2039.07 481.867C2039.33 480 2048 439.733 2058.13 392.4L2076.67 306.533L2106 306.933C2131.87 307.467 2136.4 307.867 2144.27 310.4Z" fill="white"/>
<path d="M2307.33 270.933C2307.07 271.867 2295.07 327.6 2280.67 394.667C2266.27 461.733 2254.13 518 2253.73 519.6L2253.07 522.667H2325.87H2398.67L2399.33 519.6C2399.73 518 2401.2 510.933 2402.67 504C2404.13 497.067 2405.6 490 2406 488.267L2406.67 485.333H2356.67C2326.27 485.333 2306.67 484.8 2306.67 484.133C2306.67 483.333 2310 467.733 2314 449.333C2318 430.933 2321.33 415.6 2321.33 415.2C2321.33 414.933 2341.2 414.667 2365.33 414.667C2389.6 414.667 2409.33 414.267 2409.33 413.867C2409.33 413.333 2414.67 389.067 2416.67 380.4L2417.33 377.333L2373.6 377.067L2329.87 376.667L2337.2 341.733L2344.67 306.667L2392 306.4L2439.33 306L2442.27 292.667C2443.87 285.333 2445.6 277.067 2446 274.267L2446.93 269.333H2377.47C2322.93 269.333 2307.73 269.733 2307.33 270.933Z" fill="white"/>
</svg>
