<svg width="2444" height="480" viewBox="0 0 2444 480" fill="none" xmlns="http://www.w3.org/2000/svg">
<path d="M841.739 1.39447C812.405 6.19446 788.405 18.8611 767.605 40.3278C739.072 70.0611 725.072 106.594 725.072 151.928C725.072 186.594 734.539 211.928 754.939 232.194C774.939 251.928 798.539 260.861 830.805 260.861C839.205 260.861 851.205 259.928 857.472 258.861C914.405 248.994 957.872 200.728 968.539 135.794C971.472 117.794 970.405 86.8611 966.405 72.8611C956.272 37.1278 931.339 12.4611 896.405 3.39447C882.805 -0.0722046 856.672 -1.13885 841.739 1.39447ZM879.072 40.1945C900.539 45.7945 916.272 62.9945 921.872 87.1278C923.472 94.0611 923.872 100.594 923.339 114.861C922.539 137.794 918.805 152.461 908.805 172.861C902.939 184.728 900.139 188.594 890.405 198.461C881.339 207.661 876.805 210.994 868.939 214.861C832.405 232.194 794.139 221.928 779.072 190.861C773.605 179.794 771.339 168.194 771.339 152.194C771.472 97.1278 800.405 51.6611 842.539 40.3278C852.139 37.7945 869.339 37.6611 879.072 40.1945Z" fill="#99000F"/>
<path d="M74.4055 128.328C33.7388 196.861 0.272156 253.528 0.00548909 254.195C-0.261178 254.995 9.20549 255.528 24.6722 255.528H49.7388L67.0722 224.195L84.4055 192.995L134.672 192.861H184.805L185.605 196.461C186.272 200.328 194.405 253.661 194.405 254.861C194.405 255.261 204.672 255.528 217.072 255.528C229.605 255.528 239.739 255.261 239.739 254.995C239.739 254.728 230.805 198.461 219.739 129.928C208.805 61.5279 199.739 5.12788 199.739 4.59454C199.739 3.92789 188.139 3.52788 174.139 3.52788L148.405 3.66121L74.4055 128.328ZM174.005 107.128C177.472 133.795 179.872 155.795 179.472 156.195C179.072 156.595 162.005 156.728 141.339 156.595L104.005 156.195L132.939 105.261C148.939 77.1279 163.205 51.3945 164.539 47.9279L167.072 41.5279L167.339 50.1945C167.605 54.9946 170.539 80.5945 174.005 107.128Z" fill="#99000F"/>
<path d="M316.539 5.79443C312.939 17.7944 284.939 151.528 283.739 162.194C278.272 211.528 300.139 246.328 343.739 257.794C355.872 260.994 387.072 260.994 402.405 257.661C441.739 249.394 465.472 225.528 479.605 180.194C482.005 172.861 491.739 130.194 501.472 85.5278L519.205 4.19443L497.339 3.79443C485.205 3.6611 475.205 3.6611 474.939 3.92776C474.672 4.19443 466.939 38.8611 457.739 80.9944C438.272 170.328 437.205 174.061 430.405 188.194C418.672 212.594 400.272 223.261 372.272 221.928C347.472 220.728 331.605 206.994 327.739 183.261C325.472 168.861 326.139 164.994 347.605 67.1278C355.072 33.5278 361.072 5.52777 361.072 4.8611C361.072 4.0611 352.139 3.52777 339.205 3.52777C319.472 3.52777 317.205 3.79443 316.539 5.79443Z" fill="#99000F"/>
<path d="M552.405 6.46121C552.005 8.19455 550.539 14.8612 549.072 21.5279C547.605 28.0612 546.139 34.8612 545.739 36.4612L545.072 39.5279H581.739C608.939 39.5279 618.405 39.9279 618.405 41.1279C618.405 41.9279 608.272 90.1945 595.739 148.461C583.339 206.595 573.072 254.461 573.072 254.861C573.072 255.261 582.939 255.528 595.072 255.528H616.939L618.272 250.461C618.939 247.795 629.205 200.195 641.072 144.861C652.939 89.5279 662.805 43.1279 663.205 41.7946C663.872 39.6612 666.805 39.5279 700.272 39.5279H736.539L739.739 24.4612C741.339 16.3279 743.072 8.19455 743.472 6.46121L744.005 3.52788H648.539H553.072L552.405 6.46121Z" fill="#99000F"/>
<path d="M1109.74 92.7279C1102.94 94.4612 1089.21 102.328 1083.74 107.661C1068.41 122.461 1066.54 144.728 1078.41 169.395C1083.74 180.595 1090.01 189.661 1106.41 210.328C1129.34 239.261 1134.67 247.528 1130.14 247.528C1129.34 247.528 1121.61 240.461 1113.07 231.795C1101.07 219.661 1095.87 213.261 1089.87 203.128C1085.61 195.928 1079.74 187.528 1076.81 184.595C1066.67 174.461 1050.67 169.395 1032.14 170.595C1012.94 171.795 998.806 180.461 991.872 195.528C988.939 201.928 988.539 204.728 988.406 216.861C988.406 230.461 988.539 231.128 993.472 240.861C996.672 247.528 998.406 252.728 998.406 256.328C998.406 264.595 994.806 274.728 989.472 281.795C986.806 285.261 983.472 290.995 982.139 294.595C978.939 303.128 978.939 318.328 982.272 325.795C987.072 336.195 1008.81 349.928 1025.34 352.995L1034.01 354.595L1023.87 363.528C1009.47 376.195 991.472 395.528 983.472 406.595C977.206 415.528 969.072 430.995 969.072 434.195C969.072 434.861 971.072 435.528 973.472 435.528C977.472 435.528 978.672 434.328 987.739 421.795C1002.41 401.661 1031.74 372.861 1049.07 361.528C1067.21 349.661 1091.07 326.061 1100.41 310.861C1108.14 298.061 1113.34 292.195 1120.01 288.728C1125.47 285.928 1130.41 285.395 1130.41 287.661C1130.41 288.461 1124.81 295.128 1117.87 302.595C1087.47 335.661 1082.94 340.728 1076.67 349.528C1073.07 354.595 1067.61 363.928 1064.67 369.928C1060.14 379.261 1059.21 382.861 1058.67 391.395C1058.14 400.195 1058.54 402.595 1061.07 407.661C1066.14 417.528 1071.47 423.261 1079.47 427.128C1086.41 430.461 1088.27 430.861 1101.74 430.728C1112.54 430.595 1117.87 430.061 1121.74 428.328C1130.81 424.328 1137.61 423.795 1150.01 425.661C1156.54 426.595 1164.81 428.328 1168.41 429.528C1172.14 430.595 1180.14 431.928 1186.41 432.328C1196.41 433.128 1198.67 432.861 1204.41 430.328C1212.41 426.861 1216.27 423.395 1220.67 415.928C1227.61 403.928 1229.74 383.928 1225.74 368.328C1220.81 349.261 1213.47 339.928 1185.07 316.728C1169.34 303.928 1166.41 300.061 1168.81 294.861C1170.67 290.861 1174.67 290.461 1178.14 293.928C1181.47 297.528 1196.41 315.661 1207.21 329.395C1219.61 345.395 1231.07 355.795 1242.14 361.128C1250.54 365.261 1251.87 365.528 1265.74 365.528C1279.07 365.528 1281.07 365.261 1288.01 361.795C1302.94 354.461 1308.41 343.395 1307.47 322.328C1306.94 308.728 1306.27 306.595 1296.54 289.928C1290.14 278.995 1292.01 268.461 1302.41 254.861C1310.54 244.461 1313.07 237.661 1313.07 226.595C1313.07 212.461 1309.34 203.528 1299.07 193.261C1292.67 186.861 1289.34 184.595 1283.74 182.995C1270.27 178.995 1252.54 180.995 1241.07 187.928C1233.07 192.728 1228.27 197.128 1219.47 208.195C1209.21 220.861 1198.01 231.395 1187.34 238.328C1175.74 245.795 1165.74 248.595 1170.41 242.861C1171.34 241.795 1176.94 237.395 1182.94 233.261C1195.07 224.861 1213.87 206.728 1222.01 195.528C1236.67 175.528 1242.54 152.728 1238.27 132.595C1234.94 116.995 1226.94 104.595 1216.54 99.1279C1207.87 94.5945 1193.74 95.1279 1181.74 100.461C1176.67 102.728 1170.27 104.861 1167.74 105.395C1160.94 106.595 1148.94 102.995 1140.27 97.2612C1133.47 92.7279 1131.74 92.1945 1123.21 91.9279C1118.01 91.7946 1111.87 92.1945 1109.74 92.7279Z" fill="#20724D"/>
<path d="M1357.07 228.595C1357.07 232.995 1391.61 476.995 1392.41 478.328C1392.94 478.995 1403.07 479.528 1415.61 479.528C1435.34 479.528 1438.27 479.261 1440.01 477.128C1441.07 475.928 1473.61 420.861 1512.41 354.861C1551.07 288.861 1583.87 232.861 1585.34 230.461L1588.01 226.195H1562.81L1537.74 226.328L1484.27 324.595C1454.81 378.595 1429.61 425.661 1428.41 429.128C1427.07 432.728 1426.01 435.528 1425.87 435.528C1425.74 435.528 1425.47 430.595 1425.47 424.461C1425.34 418.461 1420.14 372.061 1413.87 321.261C1407.61 270.595 1402.41 228.461 1402.41 227.661C1402.41 226.595 1395.21 226.195 1379.74 226.195C1358.67 226.195 1357.07 226.328 1357.07 228.595Z" fill="white"/>
<path d="M1623.07 227.795C1622.81 228.728 1610.81 284.461 1596.41 351.528C1582.01 418.595 1569.87 474.861 1569.47 476.461L1568.81 479.528H1641.61H1714.41L1715.07 476.461C1715.47 474.861 1716.94 467.795 1718.41 460.861C1719.87 453.928 1721.34 446.861 1721.74 445.128L1722.41 442.195H1672.41C1642.01 442.195 1622.41 441.661 1622.41 440.995C1622.41 440.195 1625.74 424.595 1629.74 406.195C1633.74 387.795 1637.07 372.461 1637.07 372.061C1637.07 371.795 1656.94 371.528 1681.07 371.528C1705.34 371.528 1725.07 371.128 1725.07 370.728C1725.07 370.195 1730.41 345.928 1732.41 337.261L1733.07 334.195L1689.34 333.928L1645.61 333.528L1652.94 298.595L1660.41 263.528L1707.74 263.261L1755.07 262.861L1758.01 249.528C1759.61 242.195 1761.34 233.928 1761.74 231.128L1762.67 226.195H1693.21C1638.67 226.195 1623.47 226.595 1623.07 227.795Z" fill="white"/>
<path d="M1811.07 227.795C1810.81 228.728 1798.81 284.461 1784.41 351.528C1770.01 418.595 1757.87 474.861 1757.47 476.461L1756.81 479.528H1778.94C1800.67 479.528 1801.21 479.528 1802.27 476.461C1802.94 474.861 1808.14 451.661 1813.87 424.995L1824.41 376.595L1837.74 377.128C1856.41 377.928 1863.61 381.928 1870.27 395.261C1873.21 400.995 1875.47 409.528 1886.41 455.795L1892.01 479.528H1914.94C1927.61 479.528 1938.27 479.128 1938.67 478.728C1939.87 477.661 1918.54 395.661 1915.07 388.061C1911.74 380.461 1903.87 370.995 1897.87 367.395C1895.21 365.795 1894.54 364.861 1895.87 364.461C1896.94 364.195 1902.01 362.995 1907.07 361.661C1922.27 358.195 1937.47 349.928 1947.74 339.661C1961.47 325.928 1967.74 310.195 1967.74 289.528C1967.74 257.661 1951.07 236.995 1918.94 228.861C1909.61 226.461 1904.14 226.195 1860.14 226.195C1822.54 226.195 1811.47 226.595 1811.07 227.795ZM1902.67 265.128C1915.87 271.261 1922.01 283.128 1920.67 299.795C1919.07 319.261 1906.14 333.128 1884.14 338.861C1878.81 340.195 1869.74 340.861 1854.01 340.861C1833.21 340.861 1831.61 340.728 1832.27 338.461C1832.67 337.261 1836.27 320.595 1840.41 301.528C1844.54 282.461 1848.27 265.395 1848.67 263.795L1849.47 260.595L1872.27 261.128C1893.61 261.528 1895.61 261.795 1902.67 265.128Z" fill="white"/>
<path d="M2036.54 228.461C2036.14 229.795 2024.14 285.395 2009.74 352.195C1995.34 418.861 1983.21 474.861 1982.81 476.461L1982.14 479.528H2032.14C2087.34 479.528 2102.94 478.461 2123.74 473.395C2167.61 462.595 2198.01 438.195 2216.54 398.995C2230.94 368.595 2235.47 327.528 2227.87 297.795C2223.61 281.395 2216.81 269.928 2203.74 256.728C2194.27 247.128 2190.27 244.195 2179.74 238.995C2156.01 227.395 2153.47 226.995 2091.47 226.461C2040.14 226.061 2037.21 226.195 2036.54 228.461ZM2141.34 267.261C2173.61 277.928 2188.41 305.261 2183.87 345.395C2180.54 374.728 2172.01 393.928 2154.41 411.528C2141.47 424.461 2132.41 430.195 2116.81 435.661C2101.74 440.728 2089.21 442.195 2060.14 442.195H2035.47L2036.14 438.728C2036.41 436.861 2045.07 396.595 2055.21 349.261L2073.74 263.395L2103.07 263.795C2128.94 264.328 2133.47 264.728 2141.34 267.261Z" fill="white"/>
<path d="M2304.41 227.795C2304.14 228.728 2292.14 284.461 2277.74 351.528C2263.34 418.595 2251.21 474.861 2250.81 476.461L2250.14 479.528H2322.94H2395.74L2396.41 476.461C2396.81 474.861 2398.27 467.795 2399.74 460.861C2401.21 453.928 2402.67 446.861 2403.07 445.128L2403.74 442.195H2353.74C2323.34 442.195 2303.74 441.661 2303.74 440.995C2303.74 440.195 2307.07 424.595 2311.07 406.195C2315.07 387.795 2318.41 372.461 2318.41 372.061C2318.41 371.795 2338.27 371.528 2362.41 371.528C2386.67 371.528 2406.41 371.128 2406.41 370.728C2406.41 370.195 2411.74 345.928 2413.74 337.261L2414.41 334.195L2370.67 333.928L2326.94 333.528L2334.27 298.595L2341.74 263.528L2389.07 263.261L2436.41 262.861L2439.34 249.528C2440.94 242.195 2442.67 233.928 2443.07 231.128L2444.01 226.195H2374.54C2320.01 226.195 2304.81 226.595 2304.41 227.795Z" fill="white"/>
</svg>
